<?xml version="1.0" encoding="utf-8"?>
<?xml-stylesheet type="text/xsl" href="rss1.xsl"?>
<rss version="2.0" xmlns:atom="http://www.w3.org/2005/Atom" xmlns:content="http://purl.org/rss/1.0/modules/content/" xmlns:dc="http://purl.org/dc/elements/1.1/" xmlns:media="http://search.yahoo.com/mrss/">
<channel>
 <title>Getty</title>
 <link>http://www.gettyimg.com/</link>
 <atom:link href="http://www.gettyimg.com/" rel="self" type="application/rss+xml" />

 
                <item>
                <title><![CDATA[【Apple Music】WEB-RiP - Jerome - All About Tonight (feat. Megan Vice) (1080p)]]></title>
                <link><![CDATA[https://sharemania.us/threads/jerome-all-about-tonight-feat-megan-vice-1080p.248739/]]></link>
                <description><![CDATA[<article>
<blockquote class="messageText SelectQuoteContainer ugc baseHtml">
<img src="https://i.postimg.cc/W1pSVNrJ/Jerome-All-About-Tonight-feat-Megan-Vice.jpg" class="bbCodeImage LbImage" alt="[​IMG]" data-url="https://i.postimg.cc/W1pSVNrJ/Jerome-All-About-Tonight-feat-Megan-Vice.jpg" style=""><br>
<br>
<div class="bbCodeBlock bbCodeCode">
<div class="type">Code:</div>
<pre>General
Complete name                  : G:\Новая папка\Jerome - All About Tonight (feat. Megan Vice).mp4
Format                         : MPEG-4
Format profile                 : Base Media
Codec ID                       : isom (isom/iso2/avc1/mp41)
File size                      : 186 MiB
Duration                       : 3 min 44 s
Overall bit rate               : 6 970 kb/s
Frame rate                     : 25.000 FPS
Movie name                     : All About Tonight (feat. Megan Vice)
Performer                      : Jerome
Genre                          : Dance
ContentType                    : Music Video
Recorded date                  : 2016-11-02 07:00:00 UTC
Writing application            : Lavf56.30.100
Copyright                      : ℗ 2016 Kontor Records GmbH

Video
ID                             : 1
Format                         : AVC
Format/Info                    : Advanced Video Codec
Format profile                 : High@L4
Format settings                : CABAC / 4 Ref Frames
Format settings, CABAC         : Yes
Format settings, Reference fra : 4 frames
Format settings, Slice count   : 8 slices per frame
Codec ID                       : avc1
Codec ID/Info                  : Advanced Video Coding
Duration                       : 3 min 44 s
Bit rate                       : 6 715 kb/s
Width                          : 1 920 pixels
Height                         : 912 pixels
Display aspect ratio           : 2.105
Frame rate mode                : Constant
Frame rate                     : 25.000 FPS
Color space                    : YUV
Chroma subsampling             : 4:2:0
Bit depth                      : 8 bits
Scan type                      : Progressive
Bits/(Pixel*Frame)             : 0.153
Stream size                    : 179 MiB (96%)
Color range                    : Limited
Color primaries                : BT.709
Transfer characteristics       : BT.709
Matrix coefficients            : BT.709
Codec configuration box        : avcC

Audio
ID                             : 2
Format                         : AAC LC
Format/Info                    : Advanced Audio Codec Low Complexity
Codec ID                       : mp4a-40-2
Duration                       : 3 min 44 s
Duration_LastFrame             : -20 ms
Bit rate mode                  : Constant
Bit rate                       : 251 kb/s
Channel(s)                     : 2 channels
Channel layout                 : L R
Sampling rate                  : 48.0 kHz
Frame rate                     : 46.875 FPS (1024 SPF)
Compression mode               : Lossy
Stream size                    : 6.69 MiB (4%)
Default                        : Yes
Alternate group                : 1

</pre>
</div>
<div class="bbCodeBlock bbCodeVfcHH HiddenContent">
<div class="attribution type">Hidden Content:</div>
<blockquote>You must either reply or click 'Like' to see the hidden information contained here.</blockquote>
</div>
<div class="messageTextEndMarker">&nbsp;</div>
</blockquote>
</article>]]></description>
                <author><![CDATA[vitalya3]]></author>
                </item>

                
                <item>
                <title><![CDATA[【Requests】[REQ AUD] - Camila Cabello - C,XOXO (CHANEL NO. 5 VERSION)]]></title>
                <link><![CDATA[https://sharemania.us/threads/camila-cabello-c-xoxo-chanel-no-5-version.248738/]]></link>
                <description><![CDATA[<article>
<blockquote class="messageText SelectQuoteContainer ugc baseHtml">
Hello!<br>
Does anyone have <b>15. Chanel No. 5 (Acapella) </b>from this version of the album? <br>
<br>
<a href="https://store.camilacabello.com/products/c-xoxo-digital-album-chanel-no-5-version" target="_blank" class="externalLink" rel="nofollow">https://store.camilacabello.com/products/c-xoxo-digital-album-chanel-no-5-version</a>
<div class="messageTextEndMarker">&nbsp;</div>
</blockquote>
</article>]]></description>
                <author><![CDATA[veryscary333]]></author>
                </item>

                
                <item>
                <title><![CDATA[【Apple Music】WEB-RiP - Jerome &amp; Eric Chase - Close to You (1080p)]]></title>
                <link><![CDATA[https://sharemania.us/threads/jerome-eric-chase-close-to-you-1080p.248736/]]></link>
                <description><![CDATA[<article>
<blockquote class="messageText SelectQuoteContainer ugc baseHtml">
Does anyone have <b>15. Chanel No. 5 (Acapella) </b>from this version of the album?
<div class="messageTextEndMarker">&nbsp;</div>
</blockquote>
</article>]]></description>
                <author><![CDATA[vitalya3]]></author>
                </item>

                
                <item>
                <title><![CDATA[【Apple Music】WEB-RiP - IAmChino &amp; Bulin 47 - Party (feat. Pitbull) (1080p)]]></title>
                <link><![CDATA[https://sharemania.us/threads/iamchino-bulin-47-party-feat-pitbull-1080p.248737/]]></link>
                <description><![CDATA[<article>
<blockquote class="messageText SelectQuoteContainer ugc baseHtml">
<img src="https://i.postimg.cc/5yzV35pL/Jerome-Eric-Chase-Close-to-You-mp4.jpg" class="bbCodeImage LbImage" alt="[​IMG]" data-url="https://i.postimg.cc/5yzV35pL/Jerome-Eric-Chase-Close-to-You-mp4.jpg" style=""><br>
<br>
<div class="bbCodeBlock bbCodeCode">
<div class="type">Code:</div>
<pre>General
Complete name                  : G:\Новая папка\Jerome &amp; Eric Chase - Close to You.mp4
Format                         : MPEG-4
Format profile                 : Base Media
Codec ID                       : isom (isom/iso2/avc1/mp41)
File size                      : 188 MiB
Duration                       : 3 min 39 s
Overall bit rate               : 7 165 kb/s
Frame rate                     : 25.000 FPS
Movie name                     : Close to You
Performer                      : Jerome &amp; Eric Chase
Genre                          : Dance
ContentType                    : Music Video
Recorded date                  : 2016-03-04 08:00:00 UTC
Writing application            : Lavf56.30.100
Copyright                      : ℗ 2016 Kontor Records GmbH

Video
ID                             : 1
Format                         : AVC
Format/Info                    : Advanced Video Codec
Format profile                 : High@L4
Format settings                : CABAC / 4 Ref Frames
Format settings, CABAC         : Yes
Format settings, Reference fra : 4 frames
Format settings, Slice count   : 8 slices per frame
Codec ID                       : avc1
Codec ID/Info                  : Advanced Video Coding
Duration                       : 3 min 39 s
Bit rate                       : 6 909 kb/s
Width                          : 1 920 pixels
Height                         : 1 080 pixels
Display aspect ratio           : 16:9
Frame rate mode                : Constant
Frame rate                     : 25.000 FPS
Color space                    : YUV
Chroma subsampling             : 4:2:0
Bit depth                      : 8 bits
Scan type                      : Progressive
Bits/(Pixel*Frame)             : 0.133
Stream size                    : 181 MiB (96%)
Color range                    : Limited
Color primaries                : BT.709
Transfer characteristics       : BT.709
Matrix coefficients            : BT.709
Codec configuration box        : avcC

Audio
ID                             : 2
Format                         : AAC LC
Format/Info                    : Advanced Audio Codec Low Complexity
Codec ID                       : mp4a-40-2
Duration                       : 3 min 39 s
Duration_LastFrame             : -1 ms
Bit rate mode                  : Constant
Bit rate                       : 253 kb/s
Channel(s)                     : 2 channels
Channel layout                 : L R
Sampling rate                  : 48.0 kHz
Frame rate                     : 46.875 FPS (1024 SPF)
Compression mode               : Lossy
Stream size                    : 6.62 MiB (4%)
Default                        : Yes
Alternate group                : 1

</pre>
</div>
<div class="bbCodeBlock bbCodeVfcHH HiddenContent">
<div class="attribution type">Hidden Content:</div>
<blockquote>You must either reply or click 'Like' to see the hidden information contained here.</blockquote>
</div>
<div class="messageTextEndMarker">&nbsp;</div>
</blockquote>
</article>]]></description>
                <author><![CDATA[vitalya3]]></author>
                </item>

                
                <item>
                <title><![CDATA[【Apple Music】WEB-RiP - Pitbull, Nile Rodgers - Freak 54 (Freak Out) (1080p)]]></title>
                <link><![CDATA[https://sharemania.us/threads/pitbull-nile-rodgers-freak-54-freak-out-1080p.248735/]]></link>
                <description><![CDATA[<article>
<blockquote class="messageText SelectQuoteContainer ugc baseHtml">
<img src="https://i.postimg.cc/x126qGzh/IAm-Chino-Bulin-47-Party-feat-Pitbull-mp4.jpg" class="bbCodeImage LbImage" alt="[​IMG]" data-url="https://i.postimg.cc/x126qGzh/IAm-Chino-Bulin-47-Party-feat-Pitbull-mp4.jpg" style=""><br>
<br>
<div class="bbCodeBlock bbCodeCode">
<div class="type">Code:</div>
<pre>General
Complete name                  : G:\Новая папка\IAmChino &amp; Bulin 47 - Party (feat. Pitbull).mp4
Format                         : MPEG-4
Format profile                 : Base Media
Codec ID                       : isom (isom/iso2/avc1/mp41)
File size                      : 222 MiB
Duration                       : 3 min 4 s
Overall bit rate               : 10.1 Mb/s
Frame rate                     : 23.976 FPS
Movie name                     : Party (feat. Pitbull)
Performer                      : IAmChino &amp; Bulin 47
Genre                          : Dance
ContentType                    : Music Video
Recorded date                  : 2023-05-26 07:00:00 UTC
Writing application            : Lavf56.30.100
Copyright                      : ℗ 2023 Mr. 305 Records

Video
ID                             : 1
Format                         : AVC
Format/Info                    : Advanced Video Codec
Format profile                 : High@L4
Format settings                : CABAC / 4 Ref Frames
Format settings, CABAC         : Yes
Format settings, Reference fra : 4 frames
Format settings, Slice count   : 8 slices per frame
Codec ID                       : avc1
Codec ID/Info                  : Advanced Video Coding
Duration                       : 3 min 4 s
Bit rate                       : 9 809 kb/s
Width                          : 1 920 pixels
Height                         : 1 008 pixels
Display aspect ratio           : 1.905
Frame rate mode                : Constant
Frame rate                     : 23.976 (24000/1001) FPS
Color space                    : YUV
Chroma subsampling             : 4:2:0
Bit depth                      : 8 bits
Scan type                      : Progressive
Bits/(Pixel*Frame)             : 0.211
Stream size                    : 216 MiB (98%)
Color range                    : Limited
Color primaries                : BT.709
Transfer characteristics       : BT.709
Matrix coefficients            : BT.709
Codec configuration box        : avcC

Audio
ID                             : 2
Format                         : AAC LC
Format/Info                    : Advanced Audio Codec Low Complexity
Codec ID                       : mp4a-40-2
Duration                       : 3 min 4 s
Duration_LastFrame             : -14 ms
Bit rate mode                  : Constant
Bit rate                       : 245 kb/s
Channel(s)                     : 2 channels
Channel layout                 : L R
Sampling rate                  : 48.0 kHz
Frame rate                     : 46.875 FPS (1024 SPF)
Compression mode               : Lossy
Stream size                    : 5.39 MiB (2%)
Default                        : Yes
Alternate group                : 1

</pre>
</div>
<div class="bbCodeBlock bbCodeVfcHH HiddenContent">
<div class="attribution type">Hidden Content:</div>
<blockquote>You must either reply or click 'Like' to see the hidden information contained here.</blockquote>
</div>
<div class="messageTextEndMarker">&nbsp;</div>
</blockquote>
</article>]]></description>
                <author><![CDATA[vitalya3]]></author>
                </item>

                </channel></rss>